PathFileType	4	(X/Y/Z)	OpenSim_Sub11_EMGPreOp_Accel.trc
DataRate	CameraRate	NumFrames	NumMarkers	Units	OrigDataRate	OrigDataStartFrame	OrigNumFrames
100	100	31	8	m	100	2207	5885
Frame#	Time	torso_imu_offset_imu	pelvis_imu_offset_imu	tibia_r_imu_offset_imu	femur_r_imu_offset_imu	tibia_l_imu_offset_imu	femur_l_imu_offset_imu	toes_r_imu_offset_imu	toes_l_imu_offset_imu
				X1	Y1	Z1	X2	Y2	Z2	X3	Y3	Z3	X4	Y4	Z4	X5	Y5	Z5	X6	Y6	Z6	X7	Y7	Z7	X8		Y8	Z8	

2207	22.06000000	9.05101964	0.99534614	4.01548586	8.95942152	-0.47297723	3.52076298	11.51317173	0.37206291	1.30080313	9.29386921	-3.02267734	-1.14942089	9.77116337	-0.17953637	0.71291214	9.72128172	1.14835804	-1.59700817	11.10058361	0.59229915	8.23053358	5.84421189	-0.04162493	7.86896327
2208	22.07000000	9.09360453	0.98333900	3.99179940	8.91248598	-0.67899056	3.50424329	12.65023709	0.82411005	1.70203540	9.08427345	-3.20112059	-1.25981250	9.87058995	-0.28148195	0.64809948	9.75465475	1.04388179	-1.60652524	11.41447005	0.68231388	7.71431522	5.89156191	0.11629167	7.83920055
2209	22.08000000	9.10467827	0.98032608	3.98061319	8.88539383	-0.75600130	3.54378417	12.51116209	1.22007620	2.06580989	8.98717872	-3.29722020	-1.39097957	9.85907025	-0.36682210	0.62040680	9.74496243	1.02471240	-1.65313001	11.68035567	0.98880264	7.19810383	6.12299726	-0.02627312	7.68228485
2210	22.09000000	9.06299627	1.00839609	3.90532623	8.85619878	-0.74638974	3.59077232	11.49401759	1.47809296	2.48075199	9.20251937	-3.35675713	-1.54033741	9.81190104	-0.51941225	0.51399086	9.66685616	1.07916829	-1.73347317	11.86589712	0.81475516	6.41285404	6.10939863	-0.06848210	7.64166410
2211	22.10000000	9.06827188	0.99765434	3.84392821	8.85677446	-0.72044535	3.58363976	10.28175923	2.07043993	2.51590470	9.56958299	-3.46959309	-1.74476566	9.85337847	-0.70042741	0.48421201	9.53396938	1.17569612	-1.84642048	11.66081955	1.57490733	5.79311769	5.85234494	0.05401118	7.86167870
2212	22.11000000	9.10057726	0.96401297	3.78333817	8.85461694	-0.70440948	3.55909400	9.34417883	2.91910177	2.08491338	10.07739704	-3.47733800	-2.00690663	9.84819934	-0.64487437	0.43348207	9.39434196	1.28753821	-1.99387818	11.10345469	1.97831366	4.86485888	5.80469658	0.16178221	7.94509970
2213	22.12000000	9.18310721	1.00469070	3.80133998	8.88042434	-0.65546997	3.38601230	8.52048850	3.62438314	2.63529272	10.37198087	-3.78955156	-2.32102290	9.81677097	-0.39117690	0.38653770	9.28793517	1.36972762	-2.09745680	11.16152646	0.94792816	3.76601852	5.80905867	0.19544265	7.88530174
2214	22.13000000	9.22618479	0.95708747	3.77563138	8.87265163	-0.55943064	3.22992112	7.97151292	3.81611796	3.59610178	10.32481712	-4.30525133	-2.56725592	9.82691659	-0.06406753	0.38848321	9.32138234	1.38316735	-2.16456748	10.95407585	0.33280193	2.80091027	6.38182238	0.08606033	7.50478643
2215	22.14000000	9.17379336	0.85358794	3.65997125	8.78516827	-0.49812087	3.00600795	7.83181059	3.85898963	3.59140186	9.81356897	-4.72800735	-2.70397923	9.92760271	0.04278462	0.43836905	9.36451253	1.39268802	-2.20978962	10.62261424	1.34533112	2.77912833	5.90394179	0.03624909	7.81406217
2216	22.15000000	9.30121933	0.92654658	3.65564176	8.67072692	-0.57699552	2.96116122	7.67310957	4.13452385	3.13071803	9.15526519	-4.89392353	-2.47842605	10.00350164	-0.26492891	0.42422702	9.50455964	1.38256892	-2.12910383	10.32305280	2.07280549	2.93787140	5.76840589	0.21386104	7.99587609
2217	22.16000000	9.33241038	0.89848042	3.69640611	8.60712437	-0.63147795	2.91260771	7.48173311	4.57211493	2.63107900	8.74290708	-4.54962635	-2.10527156	9.87710286	-0.52110648	0.56644037	9.60349080	1.35260843	-1.95948736	10.16255030	1.36812959	2.58588002	5.75738531	0.17311601	7.95920228
2218	22.17000000	9.33666662	0.85723312	3.64312087	8.65189609	-0.76240578	2.73322997	7.48363294	4.75098529	2.13312507	8.35966587	-3.94211941	-1.75726780	9.77294810	-0.40632823	0.70960900	9.70932496	1.24088733	-1.78021453	9.39089829	1.25864831	2.33808267	6.04660638	0.05250127	7.73864628
2219	22.18000000	9.29891051	0.93921956	3.68045629	8.69315976	-0.83882580	2.55208835	7.57681504	4.50359080	1.82651162	8.09088877	-3.33830775	-1.50786532	9.78809838	-0.22102938	0.68731481	9.81936877	1.13616059	-1.63212535	8.71288895	1.38032088	2.82441156	5.85491139	0.07760303	7.85498685
2220	22.19000000	9.29501205	0.99314860	3.77707535	8.71599005	-0.88830055	2.42961651	7.72310871	3.98533195	1.82107354	8.02785494	-2.51833665	-1.34038067	9.78297139	-0.30937970	0.68254593	9.77960772	1.07490394	-1.55519275	8.35834254	-0.85558085	2.17039168	6.08287653	0.06140000	7.75452561
2221	22.20000000	9.44864804	1.03908495	3.81134876	8.70339365	-0.98979259	2.29210507	7.94212165	3.18061020	1.88644647	8.13957247	-1.57944973	-1.31195171	9.72684032	-0.53535639	0.67995370	9.71849163	1.09178084	-1.59057832	10.06747742	-1.06969644	0.40649878	6.05448532	0.02869082	7.66268053
2222	22.21000000	9.42717844	1.00304182	3.81753625	8.58112315	-1.09467118	2.21396371	8.26470968	2.18361655	1.94051154	8.33672956	-0.65261686	-1.43143180	9.68977170	-0.82581294	0.73810000	9.65899300	1.01013242	-1.60187657	9.10419301	4.71285904	8.42013529	6.04341825	-0.01664534	7.70401353
2223	22.22000000	9.30510778	0.98495862	3.90623566	8.49283728	-1.17334013	2.41487633	9.00257775	1.33305648	1.77594273	8.51689406	0.02524890	-1.51904205	9.68547333	-0.94385888	0.81955970	9.59022536	1.13799665	-1.67377958	1.96191455	2.86041396	14.90917327	5.89059570	0.01876237	7.85945929
2224	22.23000000	9.26751477	0.97807872	4.05324535	8.52417904	-1.16500431	2.79708622	9.91950475	0.55476550	1.84637515	9.22749754	0.65286328	-1.61820344	9.72787875	-0.69768985	0.81513720	9.54373921	1.33334847	-1.76245885	-1.87054159	-0.15557953	9.84796506	5.84560429	-0.10124812	7.92643585
2225	22.24000000	9.31686320	0.95196251	4.21361496	8.75739468	-0.87640580	2.97512318	10.69644540	-1.10770926	3.69026028	10.15549845	1.16172224	-1.73913963	9.89113373	-0.23554202	0.74080614	9.65993966	1.45214358	-1.73753298	-1.76660591	1.95528190	9.86193083	6.25510822	-0.03175835	7.62898176
2226	22.25000000	9.21268479	0.96412657	4.36356754	9.05209382	-0.38268766	3.02139597	11.62357947	-4.17744707	6.23817127	10.21056812	1.33894893	-1.60652598	9.95405956	0.02971688	0.75599040	9.62444993	1.42099804	-1.77454946	3.16439244	0.29052140	8.69478908	5.96988135	0.06592924	7.82585602
2227	22.26000000	9.05943770	0.99731239	4.43836282	9.24224722	-0.07495253	3.26617041	11.62217518	-6.87470253	5.61237446	9.86356405	1.44821221	-1.22560297	9.92217855	-0.18058156	0.86913644	9.46281147	1.39932157	-1.78600590	4.45266214	-0.42701075	8.71480634	5.83307051	0.03814359	7.91016909
2228	22.27000000	8.93849169	1.06236289	4.55868345	9.45133220	0.07685430	3.68560828	10.04850157	-6.60470359	3.56477983	10.16586976	1.38137621	-0.75030493	9.74709838	-0.38213520	1.00278697	9.40219544	1.41298188	-1.75440142	3.44120363	1.69008226	9.87577197	5.84260852	-0.11180983	7.92125495
2229	22.28000000	8.87864523	1.06147262	4.68514246	9.62167721	0.19639434	3.98130525	9.09136605	-4.41697857	3.00031371	10.88201184	0.77456037	-0.34035905	9.69788167	0.01423003	1.10964969	9.67598929	1.49454511	-1.71453570	3.83510805	1.78735830	9.60101472	6.04371681	-0.11505736	7.82045324
2230	22.29000000	8.89327349	0.97130712	4.78608284	9.70492733	0.30698792	4.12937158	9.61385473	-2.91058986	3.05472544	11.59063487	-0.30342692	-0.14387696	9.83268348	0.56496777	1.01432049	9.95724590	1.45577184	-1.73524934	5.44917290	1.04531880	9.67515463	5.78074869	0.01688452	8.03466560
2231	22.30000000	8.90625424	0.90221861	4.85977523	9.74900494	0.43892566	4.26370449	10.76682821	-2.04879432	2.92624595	12.26084798	-1.40309393	-0.36364244	10.01701146	0.72361077	0.91595075	10.09793186	1.32792575	-1.78272132	5.48403881	-0.26057097	9.55463955	6.19180561	-0.01081382	7.78458207
2232	22.31000000	8.97206586	0.84315987	4.87520149	9.81921289	0.54845433	4.36836509	11.41289001	-0.63389639	2.80484987	12.13528977	-2.43406599	-0.90820104	10.07570670	0.51872608	0.85081948	9.99143379	1.31635538	-1.84986858	5.44965372	-1.27578060	9.70669438	6.08271975	-0.10246513	7.80981557
2233	22.32000000	8.97677738	0.73709567	4.92631641	9.80303721	0.60675065	4.41450340	11.39872234	0.71337441	2.36295350	11.41619224	-2.87918875	-1.55241823	10.04061458	0.06279453	0.75368948	9.82918959	1.80207455	-1.96397666	6.16730136	-2.00141532	9.43749969	5.98564519	0.08533646	7.93855754
2234	22.33000000	9.00878710	0.60346379	4.94765738	9.71908492	0.57303142	4.43877867	10.96390922	1.59053486	1.78512158	10.46773447	-3.03589957	-2.05862336	10.04765008	-0.28761920	0.67840780	9.70486176	1.36814381	-2.12409935	7.29048814	-2.26858047	9.67019155	5.48770764	0.49236534	8.45040637
2235	22.34000000	9.05340273	0.50605025	5.02538742	9.66562120	0.37675563	4.45443915	10.54743663	1.72456240	1.25176767	9.88087872	-2.83315914	-2.34252354	10.11270045	-0.40265760	0.60879306	9.81890586	1.28012452	-2.35710557	9.10205359	-2.97019978	10.39993401	5.74863121	0.52949453	8.41373980
2236	22.35000000	9.11953175	0.40066636	5.05817769	9.56625918	0.10984888	4.35007927	10.44499718	1.36660177	0.84735930	10.07303140	-2.29384941	-2.51208810	10.26302957	-0.42787967	0.55169680	9.75562346	2.07923217	-2.63564556	7.55321017	-2.38377019	9.31004252	6.20407671	0.20221458	8.10661048
2237	22.36000000	9.19736488	0.32337724	5.02845199	9.58395303	-0.09916728	4.19291164	10.68880252	0.98593128	0.87912881	10.30619785	-1.62242769	-2.69884909	10.42953434	-0.47711235	0.57502036	9.89303199	1.54654268	-2.63888961	5.05236973	-0.82966090	8.94690064	6.19745421	-0.09016434	8.04975741
